<svg xmlns="http://www.w3.org/2000/svg" viewBox="0 0 100 100">
  <defs>
    <linearGradient id="grad" x1="0%" y1="0%" x2="100%" y2="100%">
      <stop offset="0%" style="stop-color:#3b82f6;stop-opacity:1" />
      <stop offset="100%" style="stop-color:#1d4ed8;stop-opacity:1" />
    </linearGradient>
  </defs>
  <!-- Moon -->
  <path d="M75,50 C75,63.8 63.8,75 50,75 C36.2,75 25,63.8 25,50 C25,36.2 36.2,25 50,25 C55,25 59.5,26.5 63.5,29 C59.5,31.5 57,36 57,41 C57,49.8 64.2,57 73,57 C73.7,57 74.4,56.9 75,56.8 C75,54.5 75,52.3 75,50 Z" fill="url(#grad)" />
  <!-- Stars -->
  <circle cx="20" cy="20" r="3" fill="#fbbf24">
    <animate attributeName="opacity" values="1;0.3;1" dur="2s" repeatCount="indefinite" />
  </circle>
  <circle cx="85" cy="30" r="2" fill="#fbbf24">
    <animate attributeName="opacity" values="1;0.3;1" dur="2.5s" repeatCount="indefinite" />
  </circle>
  <circle cx="40" cy="85" r="2.5" fill="#fbbf24">
    <animate attributeName="opacity" values="1;0.3;1" dur="3s" repeatCount="indefinite" />
  </circle>
</svg>
